<svg xmlns="http://www.w3.org/2000/svg" width="1600" height="900" viewBox="0 0 1600 900"><defs><filter id="paper" x="-10%" y="-10%" width="120%" height="120%"><feTurbulence type="fractalNoise" baseFrequency="0.012 0.04" numOctaves="2" seed="11" result="noise"/><feDisplacementMap in="SourceGraphic" in2="noise" scale="3"/></filter><filter id="wash" x="-20%" y="-20%" width="140%" height="140%"><feTurbulence type="fractalNoise" baseFrequency="0.02" numOctaves="3" seed="7" result="t"/><feDisplacementMap in="SourceGraphic" in2="t" scale="18"/><feGaussianBlur stdDeviation="7"/></filter><filter id="ink" x="-10%" y="-10%" width="120%" height="120%"><feTurbulence type="fractalNoise" baseFrequency="0.008" numOctaves="2" seed="19" result="n"/><feDisplacementMap in="SourceGraphic" in2="n" scale="2.4"/></filter><radialGradient id="blueWash"><stop offset="0" stop-color="#5d7891" stop-opacity=".25"/><stop offset="1" stop-color="#5d7891" stop-opacity="0"/></radialGradient><style>.ink2{fill:none;stroke:#6f5b42;stroke-width:3;stroke-linecap:round;stroke-linejoin:round;opacity:.52;filter:url(#ink)}.blue{fill:none;stroke:#3f6684;stroke-width:5;stroke-linecap:round;stroke-linejoin:round;opacity:.7;filter:url(#ink)}.blue2{fill:none;stroke:#527a98;stroke-width:3;stroke-linecap:round;stroke-linejoin:round;opacity:.55}.orange{fill:none;stroke:#c8793f;stroke-width:5;stroke-linecap:round;stroke-linejoin:round;opacity:.7;filter:url(#ink)}.washBlue{fill:url(#blueWash);filter:url(#wash)}</style></defs><ellipse class="washBlue" cx="900" cy="430" rx="720" ry="390"/><ellipse cx="1260" cy="420" rx="300" ry="250" fill="#d18448" opacity=".08" filter="url(#wash)"/><g filter="url(#paper)"><path class="ink2" d="M70 590 C210 570 330 550 470 520"/><path class="blue" d="M450 520 C620 480 770 460 920 430 C1090 395 1250 410 1515 350"/><g fill="#f4ecd8" stroke="#4d6f8b" stroke-width="4" opacity=".9"><rect x="510" y="210" width="205" height="115" rx="18"/><rect x="790" y="170" width="210" height="120" rx="18"/><rect x="1070" y="220" width="210" height="120" rx="18"/><rect x="1320" y="150" width="180" height="105" rx="18"/><rect x="620" y="580" width="200" height="115" rx="18"/><rect x="930" y="570" width="210" height="120" rx="18"/><rect x="1245" y="545" width="210" height="120" rx="18"/></g><path class="blue2" d="M715 268 L790 230 M1000 230 L1070 280 M1280 280 L1320 205 M615 325 L690 580 M895 290 L1010 570 M1175 340 L1340 545 M820 637 H930 M1140 630 H1245"/><g fill="#3f6684" opacity=".85"><circle cx="715" cy="268" r="9"/><circle cx="790" cy="230" r="9"/><circle cx="1000" cy="230" r="9"/><circle cx="1070" cy="280" r="9"/><circle cx="1280" cy="280" r="9"/></g><g transform="translate(505 235)"><path class="ink2" d="M20 25 H165 M20 58 H135"/></g><g transform="translate(805 195)"><path class="blue2" d="M20 25 H165 M20 58 H125"/></g><g transform="translate(1085 245)"><path class="blue2" d="M20 25 H165 M20 58 H145"/></g><g transform="translate(640 605)"><path class="ink2" d="M15 20 h50 v55 h-50 z M75 20 h90 v15 h-90 M75 50 h70 v15 h-70"/></g><g transform="translate(945 595)"><path class="blue2" d="M15 20 h48 v55 h-48 z M75 20 h95 v15 h-95 M75 50 h75 v15 h-75"/></g><path class="orange" d="M450 520 C620 480 770 460 920 430 C1090 395 1250 410 1515 350" stroke-dasharray="2 30" stroke-width="9"/><g transform="translate(1170 370)"><path class="orange" d="M0 0 l30 28 l55 -65"/><path class="ink2" d="M-22 -45 h130 v115 h-130 z"/></g></g></svg>