<svg xmlns="http://www.w3.org/2000/svg" width="1600" height="900" viewBox="0 0 1600 900"><defs><filter id="paper" x="-10%" y="-10%" width="120%" height="120%"><feTurbulence type="fractalNoise" baseFrequency="0.012 0.04" numOctaves="2" seed="11" result="noise"/><feDisplacementMap in="SourceGraphic" in2="noise" scale="3"/></filter><filter id="wash" x="-20%" y="-20%" width="140%" height="140%"><feTurbulence type="fractalNoise" baseFrequency="0.02" numOctaves="3" seed="7" result="t"/><feDisplacementMap in="SourceGraphic" in2="t" scale="18"/><feGaussianBlur stdDeviation="7"/></filter><filter id="ink" x="-10%" y="-10%" width="120%" height="120%"><feTurbulence type="fractalNoise" baseFrequency="0.008" numOctaves="2" seed="19" result="n"/><feDisplacementMap in="SourceGraphic" in2="n" scale="2.4"/></filter><radialGradient id="warmWash"><stop offset="0" stop-color="#d8a067" stop-opacity=".26"/><stop offset="1" stop-color="#d8a067" stop-opacity="0"/></radialGradient><radialGradient id="blueWash"><stop offset="0" stop-color="#5d7891" stop-opacity=".25"/><stop offset="1" stop-color="#5d7891" stop-opacity="0"/></radialGradient><style>.ink2{fill:none;stroke:#6f5b42;stroke-width:3;stroke-linecap:round;stroke-linejoin:round;opacity:.52;filter:url(#ink)}.blue{fill:none;stroke:#3f6684;stroke-width:5;stroke-linecap:round;stroke-linejoin:round;opacity:.7;filter:url(#ink)}.blue2{fill:none;stroke:#527a98;stroke-width:3;stroke-linecap:round;stroke-linejoin:round;opacity:.55}.orange{fill:none;stroke:#c8793f;stroke-width:5;stroke-linecap:round;stroke-linejoin:round;opacity:.7}.olive{fill:none;stroke:#6f744c;stroke-width:4;stroke-linecap:round;stroke-linejoin:round;opacity:.55}.washWarm{fill:url(#warmWash);filter:url(#wash)}.washBlue{fill:url(#blueWash);filter:url(#wash)}</style></defs><ellipse class="washBlue" cx="900" cy="450" rx="680" ry="360"/><ellipse class="washWarm" cx="260" cy="540" rx="260" ry="220"/><g filter="url(#paper)"><g opacity=".28"><path class="blue2" d="M100 170 H1510 M100 260 H1510 M100 350 H1510 M100 440 H1510 M100 530 H1510 M100 620 H1510 M100 710 H1510"/><path class="blue2" d="M210 120 V750 M350 120 V750 M490 120 V750 M630 120 V750 M770 120 V750 M910 120 V750 M1050 120 V750 M1190 120 V750 M1330 120 V750 M1470 120 V750"/></g><path class="ink2" d="M90 590 C210 570 350 550 500 520"/><path class="blue" d="M480 520 C560 510 620 450 700 465 C790 482 840 350 930 390 C1000 420 1040 530 1130 495 C1220 460 1260 320 1350 360 C1420 390 1470 350 1530 315"/><path class="orange" d="M480 560 C570 535 650 550 730 520 C810 490 880 510 960 475 C1040 440 1110 458 1190 420 C1270 382 1370 405 1515 355" opacity=".55"/><g transform="translate(225 260)"><circle class="ink2" cx="105" cy="105" r="95"/><path class="ink2" d="M105 10 V200 M10 105 H200"/><path class="olive" d="M35 145 C70 120 90 150 120 105 C145 68 170 82 185 50"/></g><g fill="#3f6684" opacity=".72"><circle cx="700" cy="465" r="9"/><circle cx="930" cy="390" r="9"/><circle cx="1130" cy="495" r="9"/><circle cx="1350" cy="360" r="9"/></g><path class="blue2" stroke-dasharray="11 16" d="M700 465 V675 M930 390 V675 M1130 495 V675 M1350 360 V675"/></g></svg>