<svg xmlns="http://www.w3.org/2000/svg" width="1600" height="900" viewBox="0 0 1600 900"><defs><filter id="paper" x="-10%" y="-10%" width="120%" height="120%"><feTurbulence type="fractalNoise" baseFrequency="0.012 0.04" numOctaves="2" seed="11" result="noise"/><feDisplacementMap in="SourceGraphic" in2="noise" scale="3" xChannelSelector="R" yChannelSelector="G"/></filter><filter id="wash" x="-20%" y="-20%" width="140%" height="140%"><feTurbulence type="fractalNoise" baseFrequency="0.02" numOctaves="3" seed="7" result="t"/><feDisplacementMap in="SourceGraphic" in2="t" scale="18"/><feGaussianBlur stdDeviation="7"/></filter><filter id="ink" x="-10%" y="-10%" width="120%" height="120%"><feTurbulence type="fractalNoise" baseFrequency="0.008" numOctaves="2" seed="19" result="n"/><feDisplacementMap in="SourceGraphic" in2="n" scale="2.4"/></filter><radialGradient id="warmWash"><stop offset="0" stop-color="#d8a067" stop-opacity=".26"/><stop offset="1" stop-color="#d8a067" stop-opacity="0"/></radialGradient><radialGradient id="blueWash"><stop offset="0" stop-color="#5d7891" stop-opacity=".25"/><stop offset="1" stop-color="#5d7891" stop-opacity="0"/></radialGradient><style>.ink{fill:none;stroke:#5d4934;stroke-width:5;stroke-linecap:round;stroke-linejoin:round;opacity:.78;filter:url(#ink)}.ink2{fill:none;stroke:#6f5b42;stroke-width:3;stroke-linecap:round;stroke-linejoin:round;opacity:.52;filter:url(#ink)}.fine{fill:none;stroke:#79664d;stroke-width:2;stroke-linecap:round;stroke-linejoin:round;opacity:.38}.blue{fill:none;stroke:#3f6684;stroke-width:5;stroke-linecap:round;stroke-linejoin:round;opacity:.7;filter:url(#ink)}.blue2{fill:none;stroke:#527a98;stroke-width:3;stroke-linecap:round;stroke-linejoin:round;opacity:.55}.orange{fill:none;stroke:#c8793f;stroke-width:5;stroke-linecap:round;stroke-linejoin:round;opacity:.7;filter:url(#ink)}.olive{fill:none;stroke:#6f744c;stroke-width:4;stroke-linecap:round;stroke-linejoin:round;opacity:.55}.washWarm{fill:url(#warmWash);filter:url(#wash)}.washBlue{fill:url(#blueWash);filter:url(#wash)}</style></defs><ellipse class="washWarm" cx="560" cy="455" rx="530" ry="330"/><ellipse cx="1250" cy="420" rx="320" ry="250" fill="#73805a" opacity=".07" filter="url(#wash)"/><g filter="url(#paper)"><path class="fine" d="M80 180 H725 M80 250 H725 M80 320 H725 M80 390 H725 M80 460 H725 M80 530 H725 M80 600 H725"/><path class="fine" d="M170 150 V640 M300 150 V640 M435 150 V640 M570 150 V640 M690 150 V640"/><path class="ink" d="M105 575 C320 555 470 540 650 525 C790 512 920 505 1090 520 C1260 535 1410 555 1520 530"/><path class="ink2" d="M720 495 L1510 465 M720 555 L1510 590"/><path class="fine" stroke-dasharray="22 18" d="M760 525 H1480"/><g transform="translate(1170 170)"><path class="ink2" d="M0 150 L90 90 L170 145 L245 70 L320 150"/><path class="olive" d="M20 160 v-80 m25 80 v-120 m30 120 v-95 m35 95 v-135"/></g><g transform="translate(980 275)"><path class="ink" d="M0 70 C80 40 160 30 245 52 L330 40 L360 56 L330 69 L246 65 C165 92 82 100 0 70 Z"/><path class="ink2" d="M130 55 l45 -42 l18 2 l-28 45 M220 59 l55 45"/></g><circle cx="1465" cy="525" r="13" fill="#c8793f" opacity=".7"/></g></svg>